<svg xmlns="http://www.w3.org/2000/svg" shape-rendering="geometricPrecision" text-rendering="geometricPrecision" image-rendering="optimizeQuality" fill-rule="evenodd" clip-rule="evenodd" viewBox="0 0 512 361.606"><path fill="#F19D37" fill-rule="nonzero" d="M252.137 57.824c10.659 0 20.31 4.321 27.293 11.307 6.986 6.985 11.306 16.634 11.306 27.293 0 10.658-4.32 20.308-11.306 27.292-6.983 6.986-16.634 11.306-27.293 11.306-10.658 0-20.307-4.32-27.293-11.306-6.985-6.984-11.305-16.634-11.305-27.292 0-10.659 4.32-20.308 11.305-27.293 6.986-6.986 16.635-11.307 27.293-11.307zm-62.975 42.032a4.323 4.323 0 110-8.646h11.076a4.323 4.323 0 010 8.646h-11.076zM217.69 43.6a4.31 4.31 0 011.569-5.892 4.315 4.315 0 015.894 1.57l5.537 9.592a4.313 4.313 0 11-7.463 4.324L217.69 43.6zm31.015-10.152a4.322 4.322 0 118.645 0v11.077a4.323 4.323 0 01-8.645 0V33.448zm31.96 6.737a4.305 4.305 0 017.463 4.289l-5.537 9.592a4.302 4.302 0 01-5.876 1.587 4.302 4.302 0 01-1.588-5.876l5.538-9.592zm24.295 21.789a4.31 4.31 0 015.892 1.572 4.309 4.309 0 01-1.57 5.891l-9.591 5.539a4.314 4.314 0 01-4.324-7.463l9.593-5.539zm-109.061 5.922a4.305 4.305 0 014.289-7.463l9.593 5.539a4.305 4.305 0 01-4.288 7.463l-9.594-5.539zm119.215 25.095a4.323 4.323 0 010 8.645h-11.076a4.322 4.322 0 110-8.645h11.076zm-6.738 31.96a4.305 4.305 0 01-4.289 7.463l-9.592-5.539a4.305 4.305 0 014.288-7.463l9.593 5.539zm-21.789 24.296a4.31 4.31 0 01-1.572 5.891 4.309 4.309 0 01-5.891-1.57l-5.54-9.592a4.313 4.313 0 017.464-4.323l5.539 9.594zm-31.017 10.152a4.323 4.323 0 11-8.646 0v-11.077a4.324 4.324 0 018.646 0v11.077zm-31.96-6.737a4.305 4.305 0 01-7.464-4.289l5.539-9.592a4.305 4.305 0 017.464 4.289l-5.539 9.592zm-24.294-21.789a4.314 4.314 0 01-4.324-7.464l9.594-5.539a4.312 4.312 0 014.322 7.464l-9.592 5.539z"/><path fill="#B4DD87" d="M4.425 211.472H512v150.134H4.425z"/><path fill="#60A867" d="M432.03 315.815H512v45.791h-59.3l-20.67-45.791zm-427.605 0H82.71l-20.763 45.791H4.425v-45.791zm0-52.517h102.102l-14.118 31.129H4.425v-31.129zm0-51.826h124.541l-12.741 30.437H4.425v-30.437zm381.549 0H512v30.437H398.671l-12.697-30.437zm22.35 51.826H512v31.129h-89.621l-14.055-31.129z"/><path fill="#84BD6D" d="M347.663 361.606l-28.227-150.261h13.887l44.953 150.261h-30.613zm-186.266 0l28.227-150.261h-13.887l-44.953 150.261h30.613zm100.307 0l.003-150.261h14.131l14.085 150.261h-28.219zm43.682 0L289.75 211.345h14.133l29.723 150.261h-28.22zm-58.028 0l-.005-150.261h-14.129l-14.085 150.261h28.219zm-43.684 0l15.638-150.261h-14.134l-29.724 150.261h28.22zm-87.752 0l44.994-150.261h-11.687L81.296 361.606h34.626zm277.216 0l-44.992-150.261h11.685l67.934 150.261h-34.627z"/><path fill="#604748" fill-rule="nonzero" d="M427.982 225.186v-73.222h24.681v73.222h-24.681z"/><path fill="#56B15D" fill-rule="nonzero" d="M427.982 151.964h-48.983c-8.208.754-9.868-5.727-6.363-11.105l31.297-36.684-.905-.904h-16.743c-6.066.897-8.318-5.683-4.638-10.295l33.71-39.592h-9.841c-6.164.162-7.689-5.508-3.733-10.86l30.701-36.461c2.097-2.491 4.343-6.144 7.989-6.061 3.143.07 5.03 3.046 6.898 5.223l32.657 38.077c3.542 5.086.521 10.43-5.66 10.43h-8.818l33.471 39.23c4.014 3.97 1.965 10.336-2.647 11.21h-19.46l29.182 34.233 3.199 3.752c2.438 2.788 1.219 9.181-4.048 9.807h-77.265z"/><path fill="#604748" d="M64.425 114.483c12.13 36.692 2.517 71.824-11.576 112.492h21.995c13.841-65.029 6.795-88.836-1.611-110.026l-8.808-2.466z"/><path fill="#479D7E" d="M35.082 179.16c2.567-30.099 7.801-54.862 29.343-64.677l8.808 2.466c13.288 8.355 25.116 26.374 36.441 55.013 15.905-29.646 5.788-51.439-31.961-65.582 21.592-6.695 41.826 1.862 60.852 18.673-10.168-38.353-39.159-47.615-65.08-25.72 3.523-27.481-7.801-34.075-22.951-40.115 7.147 10.872 12.532 22.197 11.727 35.233-23.404-21.492-42.933-13.54-60.902 5.385 17.264-4.026 35.132-5.738 50.232 4.379C24.512 100.793 9.362 116.043 0 136.075c11.325-10.368 21.995-17.113 33.32-18.321-11.878 21.543-6.644 40.568 1.812 61.456l-.05-.05z"/><path fill="#FCEC60" fill-rule="nonzero" d="M273.6 74.962c-5.493-5.493-13.08-8.891-21.463-8.891-8.381 0-15.969 3.398-21.461 8.891-5.493 5.492-8.889 13.08-8.889 21.462 0 8.381 3.396 15.969 8.889 21.461 5.492 5.493 13.08 8.89 21.461 8.89 8.383 0 15.97-3.397 21.463-8.89 5.492-5.492 8.89-13.08 8.89-21.461 0-8.382-3.398-15.97-8.89-21.462z"/></svg>