<svg xmlns="http://www.w3.org/2000/svg" xmlns:xlink="http://www.w3.org/1999/xlink" width="896" zoomAndPan="magnify" viewBox="0 0 672 477.749988" height="637" preserveAspectRatio="xMidYMid meet" version="1.0"><defs><clipPath id="9bdb000957"><path d="M 0.347656 278 L 671.824219 278 L 671.824219 477.5 L 0.347656 477.5 Z M 0.347656 278 " clip-rule="nonzero"/></clipPath><clipPath id="f3773ca6cf"><path d="M 100 278 L 560 278 L 560 477.5 L 100 477.5 Z M 100 278 " clip-rule="nonzero"/></clipPath><clipPath id="71198b93cd"><path d="M 0.347656 77 L 177 77 L 177 236 L 0.347656 236 Z M 0.347656 77 " clip-rule="nonzero"/></clipPath></defs><path fill="#f19d37" d="M 327.222656 75.171875 C 341.34375 75.171875 354.128906 80.898438 363.382812 90.152344 C 372.636719 99.402344 378.363281 112.1875 378.363281 126.304688 C 378.363281 140.421875 372.636719 153.207031 363.382812 162.457031 C 354.128906 171.710938 341.34375 177.433594 327.222656 177.433594 C 313.101562 177.433594 300.316406 171.710938 291.058594 162.457031 C 281.804688 153.207031 276.082031 140.421875 276.082031 126.304688 C 276.082031 112.1875 281.804688 99.402344 291.058594 90.152344 C 300.316406 80.898438 313.101562 75.171875 327.222656 75.171875 Z M 243.785156 130.851562 C 243.40625 130.851562 243.035156 130.816406 242.664062 130.742188 C 242.296875 130.667969 241.9375 130.5625 241.589844 130.417969 C 241.242188 130.273438 240.910156 130.097656 240.597656 129.890625 C 240.285156 129.679688 239.996094 129.441406 239.730469 129.175781 C 239.460938 128.910156 239.226562 128.621094 239.015625 128.308594 C 238.804688 127.996094 238.628906 127.664062 238.484375 127.316406 C 238.339844 126.96875 238.234375 126.613281 238.160156 126.242188 C 238.085938 125.875 238.046875 125.5 238.046875 125.125 C 238.046875 124.75 238.085938 124.375 238.160156 124.007812 C 238.234375 123.636719 238.339844 123.277344 238.484375 122.929688 C 238.628906 122.582031 238.804688 122.253906 239.015625 121.941406 C 239.226562 121.628906 239.460938 121.339844 239.730469 121.074219 C 239.996094 120.808594 240.285156 120.570312 240.597656 120.359375 C 240.910156 120.152344 241.242188 119.976562 241.589844 119.832031 C 241.9375 119.6875 242.296875 119.578125 242.664062 119.507812 C 243.035156 119.433594 243.40625 119.398438 243.785156 119.398438 L 258.460938 119.398438 C 258.835938 119.398438 259.207031 119.4375 259.574219 119.507812 C 259.945312 119.582031 260.300781 119.691406 260.648438 119.835938 C 260.996094 119.980469 261.324219 120.15625 261.636719 120.367188 C 261.949219 120.574219 262.238281 120.8125 262.503906 121.078125 C 262.769531 121.34375 263.007812 121.632812 263.214844 121.945312 C 263.425781 122.257812 263.601562 122.589844 263.742188 122.933594 C 263.886719 123.28125 263.996094 123.640625 264.070312 124.007812 C 264.140625 124.378906 264.179688 124.75 264.179688 125.125 C 264.179688 125.5 264.140625 125.871094 264.070312 126.242188 C 263.996094 126.609375 263.886719 126.96875 263.742188 127.3125 C 263.601562 127.660156 263.425781 127.992188 263.214844 128.304688 C 263.007812 128.617188 262.769531 128.90625 262.503906 129.171875 C 262.238281 129.4375 261.949219 129.675781 261.636719 129.882812 C 261.324219 130.09375 260.996094 130.269531 260.648438 130.414062 C 260.300781 130.558594 259.945312 130.667969 259.574219 130.738281 C 259.207031 130.8125 258.835938 130.851562 258.460938 130.851562 Z M 281.582031 56.332031 C 281.394531 56.007812 281.238281 55.667969 281.117188 55.3125 C 280.996094 54.957031 280.910156 54.59375 280.863281 54.222656 C 280.8125 53.851562 280.800781 53.476562 280.824219 53.105469 C 280.847656 52.730469 280.90625 52.363281 281.003906 52 C 281.101562 51.636719 281.230469 51.285156 281.398438 50.949219 C 281.5625 50.613281 281.757812 50.296875 281.988281 50 C 282.214844 49.699219 282.46875 49.429688 282.75 49.179688 C 283.03125 48.933594 283.335938 48.714844 283.660156 48.527344 C 283.984375 48.339844 284.324219 48.183594 284.679688 48.0625 C 285.035156 47.941406 285.398438 47.859375 285.769531 47.808594 C 286.144531 47.757812 286.515625 47.746094 286.890625 47.769531 C 287.265625 47.792969 287.632812 47.855469 287.996094 47.949219 C 288.359375 48.046875 288.707031 48.179688 289.042969 48.34375 C 289.382812 48.507812 289.699219 48.707031 289.996094 48.933594 C 290.292969 49.160156 290.566406 49.417969 290.816406 49.699219 C 291.0625 49.980469 291.28125 50.28125 291.46875 50.605469 L 298.804688 63.3125 C 299 63.636719 299.160156 63.976562 299.289062 64.335938 C 299.414062 64.691406 299.503906 65.058594 299.558594 65.433594 C 299.613281 65.808594 299.628906 66.183594 299.609375 66.5625 C 299.585938 66.9375 299.527344 67.3125 299.433594 67.675781 C 299.339844 68.042969 299.210938 68.398438 299.042969 68.738281 C 298.878906 69.078125 298.683594 69.398438 298.453125 69.703125 C 298.222656 70.003906 297.96875 70.277344 297.683594 70.527344 C 297.398438 70.78125 297.09375 71 296.765625 71.191406 C 296.4375 71.378906 296.097656 71.535156 295.738281 71.65625 C 295.378906 71.777344 295.011719 71.863281 294.636719 71.910156 C 294.261719 71.960938 293.882812 71.972656 293.507812 71.945312 C 293.128906 71.917969 292.757812 71.855469 292.394531 71.757812 C 292.027344 71.65625 291.675781 71.523438 291.335938 71.351562 C 291 71.183594 290.679688 70.980469 290.382812 70.746094 C 290.085938 70.515625 289.8125 70.253906 289.566406 69.964844 C 289.320312 69.679688 289.101562 69.371094 288.917969 69.039062 Z M 322.675781 42.882812 C 322.675781 42.507812 322.710938 42.136719 322.785156 41.765625 C 322.859375 41.398438 322.964844 41.039062 323.109375 40.691406 C 323.253906 40.34375 323.429688 40.015625 323.640625 39.703125 C 323.847656 39.390625 324.085938 39.101562 324.351562 38.835938 C 324.617188 38.570312 324.90625 38.332031 325.21875 38.125 C 325.53125 37.914062 325.863281 37.738281 326.210938 37.59375 C 326.558594 37.449219 326.914062 37.339844 327.285156 37.269531 C 327.652344 37.195312 328.023438 37.160156 328.402344 37.160156 C 328.777344 37.160156 329.148438 37.195312 329.519531 37.269531 C 329.886719 37.339844 330.246094 37.449219 330.59375 37.59375 C 330.941406 37.738281 331.269531 37.914062 331.582031 38.125 C 331.894531 38.332031 332.183594 38.570312 332.449219 38.835938 C 332.714844 39.101562 332.953125 39.390625 333.164062 39.703125 C 333.371094 40.015625 333.546875 40.34375 333.691406 40.691406 C 333.835938 41.039062 333.945312 41.398438 334.019531 41.765625 C 334.089844 42.136719 334.128906 42.507812 334.128906 42.882812 L 334.128906 57.558594 C 334.121094 57.929688 334.082031 58.296875 334.003906 58.660156 C 333.925781 59.027344 333.8125 59.378906 333.667969 59.722656 C 333.519531 60.0625 333.34375 60.390625 333.132812 60.695312 C 332.921875 61.003906 332.6875 61.289062 332.421875 61.550781 C 332.15625 61.8125 331.867188 62.042969 331.554688 62.25 C 331.246094 62.457031 330.917969 62.628906 330.574219 62.769531 C 330.230469 62.910156 329.875 63.015625 329.507812 63.089844 C 329.144531 63.160156 328.773438 63.195312 328.402344 63.195312 C 328.027344 63.195312 327.660156 63.160156 327.292969 63.089844 C 326.929688 63.015625 326.574219 62.910156 326.230469 62.769531 C 325.886719 62.628906 325.558594 62.457031 325.246094 62.25 C 324.933594 62.042969 324.648438 61.8125 324.382812 61.550781 C 324.117188 61.289062 323.878906 61.003906 323.667969 60.695312 C 323.460938 60.390625 323.28125 60.0625 323.136719 59.722656 C 322.988281 59.378906 322.875 59.027344 322.800781 58.660156 C 322.722656 58.296875 322.679688 57.929688 322.675781 57.558594 Z M 365.019531 51.808594 C 365.210938 51.492188 365.429688 51.199219 365.679688 50.925781 C 365.925781 50.652344 366.199219 50.40625 366.496094 50.1875 C 366.789062 49.964844 367.105469 49.777344 367.4375 49.617188 C 367.769531 49.460938 368.117188 49.332031 368.472656 49.242188 C 368.832031 49.148438 369.195312 49.09375 369.5625 49.070312 C 369.929688 49.050781 370.296875 49.0625 370.664062 49.113281 C 371.027344 49.164062 371.386719 49.246094 371.734375 49.367188 C 372.085938 49.484375 372.417969 49.636719 372.738281 49.820312 C 373.058594 50.003906 373.359375 50.214844 373.636719 50.457031 C 373.914062 50.699219 374.167969 50.964844 374.394531 51.257812 C 374.621094 51.546875 374.816406 51.859375 374.984375 52.1875 C 375.152344 52.515625 375.285156 52.859375 375.386719 53.214844 C 375.484375 53.566406 375.550781 53.929688 375.582031 54.296875 C 375.613281 54.664062 375.605469 55.03125 375.566406 55.398438 C 375.523438 55.765625 375.449219 56.125 375.335938 56.476562 C 375.226562 56.828125 375.082031 57.164062 374.90625 57.488281 L 367.570312 70.195312 C 367.382812 70.519531 367.167969 70.824219 366.921875 71.105469 C 366.675781 71.386719 366.402344 71.644531 366.109375 71.871094 C 365.8125 72.101562 365.496094 72.296875 365.160156 72.464844 C 364.824219 72.628906 364.476562 72.761719 364.113281 72.859375 C 363.753906 72.957031 363.386719 73.019531 363.011719 73.042969 C 362.636719 73.070312 362.265625 73.058594 361.894531 73.007812 C 361.523438 72.960938 361.160156 72.878906 360.804688 72.757812 C 360.449219 72.636719 360.109375 72.484375 359.785156 72.296875 C 359.460938 72.113281 359.15625 71.894531 358.875 71.648438 C 358.59375 71.402344 358.335938 71.132812 358.109375 70.835938 C 357.878906 70.539062 357.683594 70.222656 357.515625 69.886719 C 357.351562 69.550781 357.21875 69.203125 357.121094 68.84375 C 357.023438 68.480469 356.960938 68.113281 356.9375 67.738281 C 356.910156 67.367188 356.921875 66.992188 356.96875 66.621094 C 357.019531 66.25 357.101562 65.886719 357.222656 65.535156 C 357.339844 65.179688 357.496094 64.839844 357.679688 64.515625 Z M 397.207031 80.671875 C 397.53125 80.484375 397.871094 80.328125 398.226562 80.207031 C 398.582031 80.085938 398.945312 80 399.316406 79.953125 C 399.691406 79.902344 400.0625 79.890625 400.4375 79.914062 C 400.8125 79.9375 401.179688 79.996094 401.542969 80.09375 C 401.90625 80.191406 402.253906 80.324219 402.589844 80.488281 C 402.929688 80.652344 403.246094 80.851562 403.542969 81.078125 C 403.839844 81.308594 404.113281 81.5625 404.363281 81.84375 C 404.609375 82.125 404.828125 82.429688 405.015625 82.753906 C 405.203125 83.078125 405.355469 83.417969 405.476562 83.773438 C 405.597656 84.128906 405.683594 84.492188 405.734375 84.863281 C 405.785156 85.234375 405.796875 85.605469 405.773438 85.980469 C 405.75 86.355469 405.6875 86.722656 405.59375 87.085938 C 405.496094 87.449219 405.363281 87.796875 405.199219 88.132812 C 405.035156 88.472656 404.835938 88.789062 404.609375 89.085938 C 404.378906 89.382812 404.125 89.65625 403.84375 89.902344 C 403.5625 90.152344 403.257812 90.367188 402.933594 90.558594 L 390.226562 97.894531 C 389.902344 98.070312 389.566406 98.214844 389.214844 98.324219 C 388.859375 98.4375 388.5 98.515625 388.136719 98.554688 C 387.769531 98.597656 387.402344 98.601562 387.03125 98.574219 C 386.664062 98.542969 386.304688 98.480469 385.949219 98.378906 C 385.59375 98.28125 385.25 98.148438 384.921875 97.980469 C 384.589844 97.816406 384.28125 97.621094 383.988281 97.394531 C 383.695312 97.167969 383.429688 96.917969 383.1875 96.636719 C 382.941406 96.359375 382.730469 96.0625 382.542969 95.742188 C 382.359375 95.421875 382.207031 95.089844 382.085938 94.738281 C 381.964844 94.390625 381.878906 94.035156 381.828125 93.667969 C 381.777344 93.304688 381.761719 92.9375 381.78125 92.566406 C 381.800781 92.199219 381.855469 91.835938 381.949219 91.476562 C 382.039062 91.121094 382.160156 90.773438 382.320312 90.441406 C 382.476562 90.105469 382.664062 89.792969 382.882812 89.492188 C 383.101562 89.195312 383.347656 88.921875 383.617188 88.671875 C 383.890625 88.421875 384.183594 88.203125 384.496094 88.007812 Z M 252.710938 88.515625 C 252.394531 88.324219 252.101562 88.105469 251.828125 87.855469 C 251.554688 87.609375 251.308594 87.335938 251.089844 87.039062 C 250.867188 86.742188 250.679688 86.429688 250.519531 86.097656 C 250.359375 85.765625 250.234375 85.417969 250.144531 85.0625 C 250.050781 84.703125 249.996094 84.339844 249.972656 83.972656 C 249.953125 83.605469 249.964844 83.238281 250.015625 82.871094 C 250.0625 82.507812 250.148438 82.148438 250.265625 81.800781 C 250.386719 81.453125 250.539062 81.117188 250.722656 80.796875 C 250.90625 80.476562 251.117188 80.179688 251.359375 79.898438 C 251.601562 79.621094 251.867188 79.367188 252.160156 79.140625 C 252.449219 78.914062 252.761719 78.71875 253.089844 78.550781 C 253.417969 78.386719 253.761719 78.25 254.117188 78.152344 C 254.46875 78.050781 254.832031 77.984375 255.199219 77.957031 C 255.566406 77.925781 255.933594 77.929688 256.300781 77.972656 C 256.667969 78.011719 257.027344 78.089844 257.378906 78.199219 C 257.730469 78.308594 258.070312 78.453125 258.394531 78.628906 L 271.101562 85.96875 C 271.417969 86.160156 271.710938 86.378906 271.984375 86.628906 C 272.253906 86.875 272.5 87.148438 272.71875 87.445312 C 272.9375 87.738281 273.128906 88.054688 273.285156 88.386719 C 273.445312 88.71875 273.570312 89.0625 273.660156 89.421875 C 273.75 89.777344 273.808594 90.140625 273.828125 90.507812 C 273.851562 90.875 273.835938 91.242188 273.789062 91.605469 C 273.738281 91.96875 273.652344 92.328125 273.535156 92.675781 C 273.414062 93.023438 273.265625 93.359375 273.082031 93.679688 C 272.898438 93.996094 272.683594 94.296875 272.445312 94.574219 C 272.203125 94.851562 271.9375 95.105469 271.644531 95.332031 C 271.355469 95.558594 271.046875 95.753906 270.71875 95.921875 C 270.390625 96.089844 270.046875 96.222656 269.695312 96.324219 C 269.339844 96.421875 268.980469 96.488281 268.613281 96.519531 C 268.246094 96.550781 267.878906 96.546875 267.511719 96.503906 C 267.144531 96.464844 266.785156 96.390625 266.433594 96.28125 C 266.082031 96.171875 265.746094 96.027344 265.421875 95.851562 Z M 410.660156 121.757812 C 411.035156 121.761719 411.402344 121.804688 411.765625 121.882812 C 412.128906 121.960938 412.484375 122.070312 412.828125 122.21875 C 413.167969 122.363281 413.492188 122.542969 413.800781 122.753906 C 414.109375 122.960938 414.394531 123.199219 414.65625 123.464844 C 414.917969 123.730469 415.148438 124.019531 415.355469 124.328125 C 415.558594 124.640625 415.734375 124.96875 415.875 125.3125 C 416.015625 125.65625 416.121094 126.011719 416.195312 126.375 C 416.265625 126.742188 416.300781 127.109375 416.300781 127.484375 C 416.300781 127.855469 416.265625 128.222656 416.195312 128.589844 C 416.121094 128.957031 416.015625 129.308594 415.875 129.65625 C 415.734375 130 415.558594 130.328125 415.355469 130.636719 C 415.148438 130.949219 414.917969 131.234375 414.65625 131.5 C 414.394531 131.765625 414.109375 132.003906 413.800781 132.214844 C 413.492188 132.425781 413.167969 132.601562 412.828125 132.75 C 412.484375 132.894531 412.128906 133.007812 411.765625 133.085938 C 411.402344 133.160156 411.035156 133.203125 410.660156 133.210938 L 395.988281 133.210938 C 395.609375 133.210938 395.238281 133.171875 394.867188 133.097656 C 394.5 133.027344 394.140625 132.917969 393.792969 132.773438 C 393.445312 132.628906 393.117188 132.453125 392.804688 132.242188 C 392.492188 132.035156 392.203125 131.796875 391.9375 131.53125 C 391.671875 131.265625 391.433594 130.976562 391.222656 130.664062 C 391.015625 130.351562 390.839844 130.023438 390.695312 129.675781 C 390.550781 129.328125 390.441406 128.96875 390.371094 128.601562 C 390.296875 128.230469 390.257812 127.859375 390.257812 127.484375 C 390.257812 127.105469 390.296875 126.734375 390.371094 126.367188 C 390.441406 125.996094 390.550781 125.640625 390.695312 125.292969 C 390.839844 124.945312 391.015625 124.613281 391.222656 124.300781 C 391.433594 123.988281 391.671875 123.699219 391.9375 123.433594 C 392.203125 123.167969 392.492188 122.929688 392.804688 122.722656 C 393.117188 122.511719 393.445312 122.335938 393.792969 122.191406 C 394.140625 122.050781 394.5 121.941406 394.867188 121.867188 C 395.238281 121.792969 395.609375 121.757812 395.988281 121.757812 Z M 401.734375 164.09375 C 402.050781 164.285156 402.34375 164.503906 402.617188 164.753906 C 402.890625 165 403.136719 165.273438 403.355469 165.570312 C 403.574219 165.863281 403.765625 166.179688 403.925781 166.511719 C 404.082031 166.84375 404.207031 167.191406 404.300781 167.546875 C 404.394531 167.90625 404.449219 168.265625 404.472656 168.636719 C 404.492188 169.003906 404.480469 169.371094 404.429688 169.734375 C 404.378906 170.101562 404.296875 170.457031 404.175781 170.808594 C 404.058594 171.15625 403.90625 171.492188 403.722656 171.8125 C 403.539062 172.132812 403.324219 172.429688 403.082031 172.707031 C 402.84375 172.988281 402.574219 173.238281 402.285156 173.464844 C 401.992188 173.695312 401.683594 173.890625 401.355469 174.058594 C 401.027344 174.222656 400.683594 174.355469 400.328125 174.457031 C 399.972656 174.558594 399.613281 174.621094 399.246094 174.652344 C 398.875 174.683594 398.507812 174.679688 398.144531 174.636719 C 397.777344 174.597656 397.417969 174.519531 397.066406 174.410156 C 396.714844 174.296875 396.375 174.15625 396.050781 173.980469 L 383.34375 166.640625 C 383.027344 166.449219 382.734375 166.230469 382.460938 165.980469 C 382.191406 165.734375 381.945312 165.460938 381.726562 165.164062 C 381.507812 164.867188 381.316406 164.554688 381.160156 164.222656 C 381 163.890625 380.875 163.546875 380.785156 163.1875 C 380.695312 162.832031 380.636719 162.46875 380.617188 162.101562 C 380.59375 161.734375 380.609375 161.367188 380.660156 161.003906 C 380.707031 160.636719 380.792969 160.28125 380.910156 159.933594 C 381.03125 159.585938 381.179688 159.25 381.363281 158.929688 C 381.546875 158.613281 381.761719 158.3125 382.003906 158.035156 C 382.242188 157.757812 382.507812 157.503906 382.800781 157.277344 C 383.089844 157.050781 383.398438 156.855469 383.726562 156.6875 C 384.054688 156.519531 384.398438 156.386719 384.75 156.285156 C 385.105469 156.1875 385.46875 156.121094 385.835938 156.089844 C 386.199219 156.058594 386.566406 156.0625 386.933594 156.101562 C 387.300781 156.144531 387.660156 156.21875 388.011719 156.328125 C 388.363281 156.4375 388.699219 156.582031 389.023438 156.757812 Z M 372.863281 196.277344 C 373.054688 196.601562 373.207031 196.941406 373.328125 197.296875 C 373.449219 197.652344 373.535156 198.015625 373.585938 198.386719 C 373.632812 198.757812 373.644531 199.128906 373.621094 199.503906 C 373.597656 199.878906 373.539062 200.246094 373.441406 200.609375 C 373.34375 200.972656 373.214844 201.320312 373.046875 201.65625 C 372.882812 201.996094 372.683594 202.3125 372.457031 202.609375 C 372.230469 202.90625 371.972656 203.179688 371.691406 203.425781 C 371.410156 203.675781 371.105469 203.890625 370.78125 204.082031 C 370.457031 204.269531 370.117188 204.421875 369.761719 204.542969 C 369.40625 204.664062 369.042969 204.75 368.671875 204.800781 C 368.300781 204.847656 367.929688 204.863281 367.554688 204.839844 C 367.179688 204.8125 366.8125 204.753906 366.449219 204.65625 C 366.085938 204.5625 365.738281 204.429688 365.398438 204.265625 C 365.0625 204.097656 364.746094 203.902344 364.449219 203.675781 C 364.152344 203.445312 363.878906 203.191406 363.628906 202.910156 C 363.382812 202.628906 363.164062 202.324219 362.976562 202 L 355.636719 189.292969 C 355.453125 188.96875 355.304688 188.632812 355.1875 188.277344 C 355.070312 187.921875 354.988281 187.5625 354.941406 187.191406 C 354.894531 186.824219 354.886719 186.453125 354.910156 186.078125 C 354.9375 185.707031 355 185.34375 355.097656 184.984375 C 355.195312 184.625 355.328125 184.277344 355.492188 183.945312 C 355.660156 183.609375 355.855469 183.296875 356.082031 183 C 356.308594 182.703125 356.5625 182.433594 356.84375 182.1875 C 357.125 181.941406 357.425781 181.726562 357.75 181.539062 C 358.070312 181.351562 358.40625 181.199219 358.761719 181.078125 C 359.113281 180.957031 359.472656 180.871094 359.84375 180.824219 C 360.210938 180.773438 360.582031 180.757812 360.957031 180.78125 C 361.328125 180.804688 361.695312 180.863281 362.054688 180.957031 C 362.414062 181.050781 362.761719 181.175781 363.097656 181.339844 C 363.433594 181.5 363.75 181.695312 364.046875 181.917969 C 364.347656 182.144531 364.621094 182.394531 364.867188 182.671875 C 365.117188 182.949219 365.335938 183.246094 365.527344 183.566406 Z M 331.769531 209.722656 C 331.769531 210.101562 331.734375 210.472656 331.660156 210.839844 C 331.585938 211.210938 331.476562 211.570312 331.332031 211.914062 C 331.191406 212.261719 331.011719 212.59375 330.804688 212.90625 C 330.59375 213.21875 330.359375 213.507812 330.09375 213.773438 C 329.828125 214.039062 329.535156 214.277344 329.222656 214.484375 C 328.910156 214.695312 328.582031 214.871094 328.234375 215.015625 C 327.886719 215.160156 327.527344 215.265625 327.160156 215.339844 C 326.789062 215.414062 326.417969 215.449219 326.042969 215.449219 C 325.667969 215.449219 325.292969 215.414062 324.925781 215.339844 C 324.554688 215.265625 324.199219 215.160156 323.851562 215.015625 C 323.503906 214.871094 323.171875 214.695312 322.859375 214.484375 C 322.546875 214.277344 322.257812 214.039062 321.992188 213.773438 C 321.726562 213.507812 321.488281 213.21875 321.28125 212.90625 C 321.070312 212.59375 320.894531 212.261719 320.75 211.914062 C 320.605469 211.570312 320.496094 211.210938 320.425781 210.839844 C 320.351562 210.472656 320.316406 210.101562 320.316406 209.722656 L 320.316406 195.050781 C 320.324219 194.679688 320.367188 194.3125 320.445312 193.953125 C 320.523438 193.589844 320.636719 193.238281 320.785156 192.898438 C 320.933594 192.558594 321.113281 192.234375 321.320312 191.929688 C 321.53125 191.621094 321.769531 191.339844 322.035156 191.082031 C 322.300781 190.820312 322.585938 190.589844 322.898438 190.386719 C 323.207031 190.183594 323.535156 190.011719 323.878906 189.871094 C 324.222656 189.730469 324.574219 189.625 324.941406 189.554688 C 325.304688 189.480469 325.671875 189.445312 326.042969 189.445312 C 326.414062 189.445312 326.78125 189.480469 327.144531 189.554688 C 327.507812 189.625 327.863281 189.730469 328.207031 189.871094 C 328.550781 190.011719 328.875 190.183594 329.1875 190.386719 C 329.496094 190.589844 329.785156 190.820312 330.050781 191.082031 C 330.316406 191.339844 330.550781 191.621094 330.761719 191.929688 C 330.972656 192.234375 331.152344 192.558594 331.300781 192.898438 C 331.445312 193.238281 331.558594 193.589844 331.640625 193.953125 C 331.71875 194.3125 331.761719 194.679688 331.769531 195.050781 Z M 289.425781 200.800781 C 289.234375 201.117188 289.015625 201.414062 288.769531 201.6875 C 288.519531 201.964844 288.25 202.210938 287.953125 202.433594 C 287.65625 202.65625 287.339844 202.847656 287.007812 203.007812 C 286.671875 203.167969 286.328125 203.292969 285.96875 203.386719 C 285.613281 203.480469 285.246094 203.539062 284.878906 203.5625 C 284.507812 203.582031 284.140625 203.570312 283.773438 203.519531 C 283.40625 203.472656 283.046875 203.386719 282.699219 203.269531 C 282.347656 203.148438 282.011719 202.996094 281.691406 202.8125 C 281.371094 202.628906 281.070312 202.414062 280.789062 202.171875 C 280.511719 201.929688 280.257812 201.664062 280.03125 201.371094 C 279.804688 201.078125 279.605469 200.765625 279.441406 200.4375 C 279.273438 200.105469 279.140625 199.761719 279.039062 199.40625 C 278.941406 199.050781 278.875 198.6875 278.847656 198.320312 C 278.816406 197.949219 278.824219 197.582031 278.867188 197.214844 C 278.910156 196.847656 278.988281 196.488281 279.097656 196.132812 C 279.210938 195.78125 279.359375 195.441406 279.535156 195.117188 L 286.875 182.414062 C 287.066406 182.09375 287.285156 181.800781 287.53125 181.523438 C 287.78125 181.25 288.050781 181 288.347656 180.78125 C 288.644531 180.558594 288.960938 180.367188 289.292969 180.207031 C 289.625 180.046875 289.972656 179.917969 290.332031 179.824219 C 290.6875 179.734375 291.050781 179.675781 291.421875 179.652344 C 291.792969 179.628906 292.160156 179.644531 292.527344 179.691406 C 292.894531 179.742188 293.25 179.828125 293.601562 179.945312 C 293.953125 180.0625 294.289062 180.214844 294.609375 180.398438 C 294.929688 180.585938 295.230469 180.796875 295.507812 181.039062 C 295.789062 181.285156 296.042969 181.550781 296.269531 181.84375 C 296.496094 182.136719 296.691406 182.445312 296.859375 182.777344 C 297.027344 183.105469 297.160156 183.449219 297.257812 183.808594 C 297.359375 184.164062 297.425781 184.527344 297.453125 184.894531 C 297.480469 185.261719 297.476562 185.632812 297.433594 186 C 297.390625 186.367188 297.3125 186.726562 297.199219 187.078125 C 297.089844 187.433594 296.941406 187.769531 296.765625 188.09375 Z M 257.238281 171.9375 C 256.914062 172.117188 256.574219 172.261719 256.222656 172.375 C 255.871094 172.488281 255.511719 172.566406 255.140625 172.609375 C 254.773438 172.652344 254.40625 172.660156 254.039062 172.628906 C 253.667969 172.601562 253.304688 172.539062 252.949219 172.4375 C 252.59375 172.339844 252.25 172.207031 251.917969 172.042969 C 251.585938 171.875 251.273438 171.679688 250.980469 171.453125 C 250.6875 171.226562 250.421875 170.972656 250.175781 170.695312 C 249.933594 170.417969 249.71875 170.117188 249.535156 169.796875 C 249.347656 169.476562 249.195312 169.140625 249.074219 168.792969 C 248.953125 168.441406 248.867188 168.082031 248.816406 167.71875 C 248.765625 167.351562 248.75 166.984375 248.773438 166.613281 C 248.792969 166.242188 248.847656 165.878906 248.941406 165.519531 C 249.03125 165.164062 249.15625 164.816406 249.316406 164.480469 C 249.472656 164.148438 249.664062 163.832031 249.882812 163.535156 C 250.105469 163.238281 250.351562 162.964844 250.625 162.714844 C 250.898438 162.464844 251.191406 162.242188 251.507812 162.050781 L 264.21875 154.714844 C 264.542969 154.523438 264.882812 154.371094 265.238281 154.25 C 265.59375 154.128906 265.957031 154.042969 266.332031 153.996094 C 266.703125 153.945312 267.074219 153.933594 267.449219 153.957031 C 267.824219 153.980469 268.191406 154.039062 268.554688 154.136719 C 268.917969 154.234375 269.265625 154.363281 269.605469 154.53125 C 269.941406 154.695312 270.257812 154.890625 270.554688 155.121094 C 270.855469 155.347656 271.125 155.601562 271.375 155.886719 C 271.621094 156.167969 271.839844 156.46875 272.027344 156.792969 C 272.214844 157.117188 272.371094 157.457031 272.492188 157.8125 C 272.613281 158.167969 272.699219 158.53125 272.746094 158.902344 C 272.796875 159.277344 272.808594 159.648438 272.785156 160.023438 C 272.761719 160.398438 272.699219 160.765625 272.605469 161.128906 C 272.507812 161.492188 272.375 161.839844 272.210938 162.175781 C 272.046875 162.511719 271.847656 162.832031 271.621094 163.128906 C 271.390625 163.425781 271.136719 163.699219 270.855469 163.945312 C 270.574219 164.195312 270.269531 164.414062 269.945312 164.601562 Z M 257.238281 171.9375 " fill-opacity="1" fill-rule="nonzero"/><g clip-path="url(#9bdb000957)"><path fill="#b4dd87" d="M -0.976562 278.703125 L 671.519531 278.703125 L 671.519531 477.578125 L -0.976562 477.578125 Z M -0.976562 278.703125 " fill-opacity="1" fill-rule="evenodd"/><path fill="#60a867" d="M 565.566406 416.921875 L 671.519531 416.921875 L 671.519531 477.578125 L 592.953125 477.578125 Z M -0.976562 416.921875 L 102.742188 416.921875 L 75.234375 477.578125 L -0.976562 477.578125 Z M -0.976562 347.355469 L 134.300781 347.355469 L 115.59375 388.589844 L -0.976562 388.589844 Z M -0.976562 278.703125 L 164.027344 278.703125 L 147.148438 319.019531 L -0.976562 319.019531 Z M 504.546875 278.703125 L 671.519531 278.703125 L 671.519531 319.019531 L 521.367188 319.019531 Z M 534.15625 347.355469 L 671.519531 347.355469 L 671.519531 388.589844 L 552.777344 388.589844 Z M 534.15625 347.355469 " fill-opacity="1" fill-rule="evenodd"/></g><g clip-path="url(#f3773ca6cf)"><path fill="#84bd6d" d="M 453.785156 477.578125 L 416.386719 278.535156 L 434.785156 278.535156 L 494.347656 477.578125 Z M 206.996094 477.578125 L 244.394531 278.535156 L 225.996094 278.535156 L 166.4375 477.578125 Z M 339.898438 477.578125 L 339.902344 278.535156 L 358.625 278.535156 L 377.285156 477.578125 Z M 397.773438 477.578125 L 377.054688 278.535156 L 395.78125 278.535156 L 435.160156 477.578125 Z M 320.890625 477.578125 L 320.882812 278.535156 L 302.164062 278.535156 L 283.5 477.578125 Z M 263.011719 477.578125 L 283.730469 278.535156 L 265.003906 278.535156 L 225.621094 477.578125 Z M 146.746094 477.578125 L 206.359375 278.535156 L 190.875 278.535156 L 100.871094 477.578125 Z M 514.035156 477.578125 L 454.425781 278.535156 L 469.90625 278.535156 L 559.914062 477.578125 Z M 514.035156 477.578125 " fill-opacity="1" fill-rule="evenodd"/></g><path fill="#604748" d="M 560.203125 199.875 L 592.902344 199.875 L 592.902344 296.867188 L 560.203125 296.867188 Z M 560.203125 199.875 " fill-opacity="1" fill-rule="nonzero"/><path fill="#56b15d" d="M 560.203125 199.875 L 495.304688 199.875 C 484.429688 200.875 482.230469 192.289062 486.875 185.164062 L 528.339844 136.574219 L 527.140625 135.375 L 504.957031 135.375 C 496.921875 136.5625 493.9375 127.847656 498.8125 121.738281 L 543.476562 69.292969 L 530.4375 69.292969 C 522.269531 69.507812 520.25 61.996094 525.492188 54.90625 L 566.167969 6.609375 C 568.945312 3.308594 571.921875 -1.53125 576.753906 -1.417969 C 580.917969 -1.328125 583.417969 2.613281 585.890625 5.5 L 629.160156 55.9375 C 633.851562 62.675781 629.851562 69.753906 621.660156 69.753906 L 609.976562 69.753906 L 654.324219 121.71875 C 659.640625 126.976562 656.925781 135.410156 650.816406 136.570312 L 625.035156 136.570312 L 663.699219 181.914062 L 667.9375 186.886719 C 671.167969 190.578125 669.550781 199.046875 662.574219 199.875 Z M 560.203125 199.875 " fill-opacity="1" fill-rule="nonzero"/><path fill="#604748" d="M 78.515625 150.226562 C 94.589844 198.832031 81.851562 245.367188 63.179688 299.238281 L 92.320312 299.238281 C 110.660156 213.097656 101.324219 181.5625 90.1875 153.492188 Z M 78.515625 150.226562 " fill-opacity="1" fill-rule="evenodd"/><g clip-path="url(#71198b93cd)"><path fill="#479d7e" d="M 39.640625 235.902344 C 43.042969 196.03125 49.976562 163.226562 78.515625 150.226562 L 90.1875 153.492188 C 107.792969 164.5625 123.464844 188.429688 138.46875 226.367188 C 159.542969 187.09375 146.136719 158.226562 96.121094 139.492188 C 124.730469 130.625 151.539062 141.960938 176.746094 164.226562 C 163.273438 113.425781 124.863281 101.15625 90.519531 130.160156 C 95.1875 93.753906 80.183594 85.019531 60.113281 77.019531 C 69.582031 91.421875 76.714844 106.421875 75.648438 123.691406 C 44.640625 95.222656 18.765625 105.753906 -5.039062 130.824219 C 17.832031 125.492188 41.507812 123.222656 61.511719 136.625 C 25.636719 132.09375 5.5625 152.292969 -6.839844 178.828125 C 8.164062 165.09375 22.300781 156.160156 37.304688 154.558594 C 21.566406 183.097656 28.503906 208.296875 39.707031 235.96875 Z M 39.640625 235.902344 " fill-opacity="1" fill-rule="evenodd"/></g><path fill="#fcec60" d="M 355.660156 97.875 C 348.378906 90.597656 338.328125 86.097656 327.222656 86.097656 C 316.117188 86.097656 306.0625 90.597656 298.789062 97.875 C 291.507812 105.152344 287.011719 115.203125 287.011719 126.304688 C 287.011719 137.40625 291.507812 147.457031 298.789062 154.734375 C 306.0625 162.007812 316.117188 166.507812 327.222656 166.507812 C 338.328125 166.507812 348.378906 162.007812 355.660156 154.734375 C 362.933594 147.457031 367.4375 137.40625 367.4375 126.304688 C 367.4375 115.203125 362.933594 105.152344 355.660156 97.875 Z M 355.660156 97.875 " fill-opacity="1" fill-rule="nonzero"/></svg>